<svg xmlns="http://www.w3.org/2000/svg" xmlns:svg="http://www.w3.org/2000/svg" id="svg3078" width="48" height="48" version="1.1"><metadata id="metadata3083"/><g id="layer1"><path id="path3045" d="m 0,23 0,25 0.008,0 47.9847,0 0.008,0 L 48,23 45,23 45,45 3,45 3,23 z"/><path id="path3035" d="m 9,36 30,0 0,3 -30,0 z"/><path id="path3980" d="m 9,30 30,0 0,3 -30,0 z"/><path id="path3982" d="m 9,24 30,0 0,3 -30,0 z"/><path id="path3984" d="m 9,18 30,0 0,3 -30,0 z"/><path id="path3986" d="m 9,12 30,0 0,3 -30,0 z"/><path id="path3988" d="M 9,6 39,6 39,9 9,9 z"/></g></svg>